<svg width="32" height="32" viewBox="0 0 32 32" fill="none" xmlns="http://www.w3.org/2000/svg">
<path d="M1.5 0C0.66875 0 0 0.740402 0 1.66071V29.3393C0 30.2596 0.66875 31 1.5 31H2.5C3.33125 31 4 30.2596 4 29.3393V1.66071C4 0.740402 3.33125 0 2.5 0H1.5ZM7 0C6.45 0 6 0.498214 6 1.10714V29.8929C6 30.5018 6.45 31 7 31C7.55 31 8 30.5018 8 29.8929V1.10714C8 0.498214 7.55 0 7 0ZM11.5 0C10.6687 0 10 0.740402 10 1.66071V29.3393C10 30.2596 10.6687 31 11.5 31H12.5C13.3313 31 14 30.2596 14 29.3393V1.66071C14 0.740402 13.3313 0 12.5 0H11.5ZM17.5 0C16.6688 0 16 0.740402 16 1.66071V29.3393C16 30.2596 16.6688 31 17.5 31H18.5C19.3312 31 20 30.2596 20 29.3393V1.66071C20 0.740402 19.3312 0 18.5 0H17.5ZM28 1.66071V29.3393C28 30.2596 28.6688 31 29.5 31H30.5C31.3312 31 32 30.2596 32 29.3393V1.66071C32 0.740402 31.3312 0 30.5 0H29.5C28.6688 0 28 0.740402 28 1.66071ZM24 1.10714V29.8929C24 30.5018 24.45 31 25 31C25.55 31 26 30.5018 26 29.8929V1.10714C26 0.498214 25.55 0 25 0C24.45 0 24 0.498214 24 1.10714Z" fill="#F7366D"/>
</svg>
