<?xml version="1.0" encoding="UTF-8"?>
<svg id="Camada_2" data-name="Camada 2" xmlns="http://www.w3.org/2000/svg" viewBox="0 0 749.41 707.76">
  <defs>
    <style>
      .cls-1 {
        fill: #f5235e;
      }
    </style>
  </defs>
  <g id="Camada_1-2" data-name="Camada 1">
    <path class="cls-1" d="M239.14,707.76c-53.18,0-96.45-43.27-96.45-96.45,0-11.3,1.93-22.33,5.73-32.79,9.08-24.99,6.66-52.71-6.63-75.73-13.29-23.03-36.07-39-62.25-43.64-21.94-3.89-42.08-15.53-56.7-32.78-10.42-12.29-22.84-33.06-22.84-62.19,0-42.74,28.7-80.87,69.79-92.72,24.49-7.06,44.84-24.17,55.99-47.09,11.15-22.92,12.07-49.49,2.51-73.12-4.61-11.39-6.94-23.48-6.94-35.94,0-53.18,43.27-96.45,96.45-96.45,28.44,0,55.34,12.57,73.8,34.48,17.16,20.36,42.38,32.01,68.82,32.01,1.88,0,3.75-.06,5.64-.18,28.46-1.78,54.39-16.95,69.9-40.88C453.93,16.55,484.23,0,517.03,0c53.18,0,96.45,43.27,96.45,96.45,0,11.58-2.02,22.87-6.02,33.56-9.16,24.53-7.18,51.83,5.42,74.79,12.6,22.95,34.57,39.28,60.18,44.73,44.24,9.41,76.35,49.09,76.35,94.36,0,50.37-39.3,92.63-89.46,96.21-48.75,3.47-85.82,45.22-83.5,94.05.04.79.06,1.6.06,2.41,0,26.91-21.6,48.8-48.15,48.8-5.38,0-10.19-.85-14.44-2.21-1.31-.42-12.7-4.2-21.51-14.22-14.94-17.01-11.6-39.69-11.06-42.96,1.15-5.82,3.68-14.14,10.01-21.58,7.36-8.66,16.21-11.97,19.57-13.31,45.21-17.99,67.94-68.65,51.32-114.38-3.8-10.47-5.73-21.5-5.73-32.8s2.02-22.87,6.02-33.56c9.16-24.53,7.18-51.83-5.42-74.79-12.6-22.95-34.57-39.28-60.18-44.73-20.75-4.41-39.82-15.91-53.7-32.38-17.16-20.36-42.38-32.01-68.82-32.01-1.87,0-3.75.06-5.64.18-28.46,1.78-54.39,16.95-69.9,40.88-12.77,19.71-32.09,34.11-54.4,40.54-24.49,7.06-44.84,24.17-55.99,47.09-11.15,22.92-12.07,49.49-2.51,73.12,4.61,11.39,6.94,23.48,6.94,35.94,0,11.29-1.93,22.33-5.73,32.79-9.08,24.98-6.66,52.71,6.63,75.73.34.59.71,1.21,1.2,1.92,15.61,22.47,36.74,31.05,61.05,41.72,29.99,13.16,44.99,19.74,50.62,24.84,21.07,19.08,31.35,50.02,28.52,79.02-.51,5.21-4.16,37.56-30.93,62.15-17.85,16.39-40.98,25.42-65.12,25.42Z"/>
  </g>
</svg>