<svg width="24" height="13" viewBox="0 0 24 13" fill="none" xmlns="http://www.w3.org/2000/svg">
<path d="M0.180618 5.92547C1.86006 3.25 5.83365 0 12 0C18.1664 0 22.14 3.25 23.8194 5.92547C24.0602 6.3886 24.0602 6.93094 23.8194 7.40016C21.295 10.5625 18.1664 13 12 13C5.83365 13 2.70505 10.5625 0.180618 7.40016C-0.060206 6.93704 -0.060206 6.39469 0.180618 5.92547ZM12 10.5628C13.0757 10.5628 14.1074 10.1519 14.868 9.42053C15.6287 8.68914 16.056 7.69716 16.056 6.66282C16.056 5.62847 15.6287 4.63649 14.868 3.9051C14.1074 3.17371 13.0757 2.76282 12 2.76282C10.9243 2.76282 9.89263 3.17371 9.13199 3.9051C8.37134 4.63649 7.94402 5.62847 7.94402 6.66282C7.94402 7.69716 8.37134 8.68914 9.13199 9.42053C9.89263 10.1519 10.9243 10.5628 12 10.5628Z" fill="#AEAEB2"/>
</svg>
