<svg width="32" height="32" viewBox="0 0 32 32" fill="none" xmlns="http://www.w3.org/2000/svg">
<path d="M17.3335 2.3125V2.88672C17.6891 2.95234 18.0335 3.03437 18.3446 3.11641C19.0558 3.30234 19.478 4.02422 19.2891 4.72422C19.1002 5.42422 18.3669 5.83984 17.6557 5.65391C17.0502 5.49531 16.4835 5.38594 15.978 5.38047C15.5724 5.375 15.1613 5.47344 14.9002 5.62109C14.7835 5.69219 14.7279 5.75234 14.7057 5.78516C14.6891 5.8125 14.6668 5.85078 14.6668 5.93828V5.97109C14.6779 5.98203 14.7168 6.03672 14.8502 6.11328C15.1724 6.30469 15.6502 6.45234 16.3724 6.66563L16.4224 6.68203C17.0391 6.8625 17.8613 7.10859 18.528 7.51875C19.2891 7.98906 19.978 8.77109 19.9947 9.97422C20.0113 11.2047 19.3613 12.1016 18.5113 12.6266C18.1391 12.8508 17.7391 13.0094 17.328 13.1078V13.6875C17.328 14.4148 16.7335 15 15.9946 15C15.2557 15 14.6613 14.4148 14.6613 13.6875V13.0641C14.1335 12.9383 13.6501 12.7742 13.239 12.6375C13.1224 12.5992 13.0113 12.5609 12.9057 12.5281C12.2057 12.2984 11.8279 11.5547 12.0612 10.8656C12.2946 10.1766 13.0501 9.80469 13.7502 10.0344C13.8946 10.0836 14.0279 10.1273 14.1557 10.1711C14.9113 10.4227 15.4557 10.6031 16.0391 10.625C16.4835 10.6414 16.878 10.5375 17.1057 10.4008C17.2113 10.3352 17.2613 10.2805 17.2835 10.2422C17.3057 10.2094 17.3335 10.1437 17.328 10.018V10.007C17.328 9.95234 17.328 9.89219 17.1057 9.75547C16.7891 9.55859 16.3113 9.40547 15.6002 9.19219L15.4946 9.15938C14.8946 8.98438 14.1057 8.74922 13.4724 8.37188C12.7224 7.92891 12.0001 7.16875 11.9946 5.96016C11.989 4.70781 12.7113 3.84922 13.5335 3.36797C13.889 3.16016 14.2724 3.01797 14.6557 2.91953L14.6668 2.3125C14.6668 1.58516 15.2613 1 16.0002 1C16.7391 1 17.3335 1.58516 17.3335 2.3125ZM31.567 19.3914C32.2948 20.3648 32.0837 21.732 31.0948 22.4484L24.0614 27.5508C22.7614 28.4914 21.1947 29 19.578 29H1.7778C0.794453 29 0 28.218 0 27.25V23.75C0 22.782 0.794453 22 1.7778 22H3.82226L6.31674 20.0312C7.57786 19.0359 9.14454 18.5 10.7612 18.5H19.5558C20.5391 18.5 21.3336 19.282 21.3336 20.25C21.3336 21.218 20.5391 22 19.5558 22H15.1113C14.6224 22 14.2224 22.3937 14.2224 22.875C14.2224 23.3563 14.6224 23.75 15.1113 23.75H21.8113L28.4614 18.9266C29.4503 18.2102 30.8392 18.418 31.567 19.3914Z" fill="#F7366D"/>
</svg>
