<svg width="32" height="28" viewBox="0 0 32 28" fill="none" xmlns="http://www.w3.org/2000/svg">
<path d="M17.3335 1.3125V1.88672C17.6891 1.95234 18.0335 2.03437 18.3446 2.11641C19.0558 2.30234 19.478 3.02422 19.2891 3.72422C19.1002 4.42422 18.3669 4.83984 17.6557 4.65391C17.0502 4.49531 16.4835 4.38594 15.978 4.38047C15.5724 4.375 15.1613 4.47344 14.9002 4.62109C14.7835 4.69219 14.7279 4.75234 14.7057 4.78516C14.6891 4.8125 14.6668 4.85078 14.6668 4.93828V4.97109C14.6779 4.98203 14.7168 5.03672 14.8502 5.11328C15.1724 5.30469 15.6502 5.45234 16.3724 5.66563L16.4224 5.68203C17.0391 5.8625 17.8613 6.10859 18.528 6.51875C19.2891 6.98906 19.978 7.77109 19.9947 8.97422C20.0113 10.2047 19.3613 11.1016 18.5113 11.6266C18.1391 11.8508 17.7391 12.0094 17.328 12.1078V12.6875C17.328 13.4148 16.7335 14 15.9946 14C15.2557 14 14.6613 13.4148 14.6613 12.6875V12.0641C14.1335 11.9383 13.6501 11.7742 13.239 11.6375C13.1224 11.5992 13.0113 11.5609 12.9057 11.5281C12.2057 11.2984 11.8279 10.5547 12.0612 9.86562C12.2946 9.17656 13.0501 8.80469 13.7502 9.03438C13.8946 9.08359 14.0279 9.12734 14.1557 9.17109C14.9113 9.42266 15.4557 9.60312 16.0391 9.625C16.4835 9.64141 16.878 9.5375 17.1057 9.40078C17.2113 9.33516 17.2613 9.28047 17.2835 9.24219C17.3057 9.20938 17.3335 9.14375 17.328 9.01797V9.00703C17.328 8.95234 17.328 8.89219 17.1057 8.75547C16.7891 8.55859 16.3113 8.40547 15.6002 8.19219L15.4946 8.15938C14.8946 7.98438 14.1057 7.74922 13.4724 7.37188C12.7224 6.92891 12.0001 6.16875 11.9946 4.96016C11.989 3.70781 12.7113 2.84922 13.5335 2.36797C13.889 2.16016 14.2724 2.01797 14.6557 1.91953L14.6668 1.3125C14.6668 0.585156 15.2613 0 16.0002 0C16.7391 0 17.3335 0.585156 17.3335 1.3125ZM31.567 18.3914C32.2948 19.3648 32.0837 20.732 31.0948 21.4484L24.0614 26.5508C22.7614 27.4914 21.1947 28 19.578 28H1.7778C0.794453 28 0 27.218 0 26.25V22.75C0 21.782 0.794453 21 1.7778 21H3.82226L6.31674 19.0312C7.57786 18.0359 9.14454 17.5 10.7612 17.5H19.5558C20.5391 17.5 21.3336 18.282 21.3336 19.25C21.3336 20.218 20.5391 21 19.5558 21H15.1113C14.6224 21 14.2224 21.3937 14.2224 21.875C14.2224 22.3563 14.6224 22.75 15.1113 22.75H21.8113L28.4614 17.9266C29.4503 17.2102 30.8392 17.418 31.567 18.3914Z" fill="#F7557F"/>
</svg>
