<svg width="38" height="38" viewBox="0 0 38 38" fill="none" xmlns="http://www.w3.org/2000/svg">
<circle cx="18.8038" cy="18.8038" r="18.8038" fill="#FF8DA5"/>
<path d="M15.5805 14.684C15.5805 13.1085 16.7763 11.8275 18.2472 11.8275H19.5805C21.0513 11.8275 22.2472 13.1085 22.2472 14.684V14.8447C22.2472 15.8177 21.7847 16.7237 21.0222 17.246L19.2638 18.4555C18.7475 18.8111 18.3229 19.2998 18.0288 19.8769C17.7347 20.4539 17.5805 21.1009 17.5805 21.7583V21.8208C17.5805 22.6108 18.1763 23.2491 18.9138 23.2491C19.6513 23.2491 20.2472 22.6108 20.2472 21.8208V21.7583C20.2472 21.3924 20.4222 21.0531 20.7055 20.8568L22.4638 19.6472C23.9888 18.5939 24.9138 16.7862 24.9138 14.8402V14.6796C24.9138 11.524 22.5263 8.96655 19.5805 8.96655H18.2472C15.3013 8.97102 12.9138 11.5285 12.9138 14.684C12.9138 15.474 13.5097 16.1123 14.2472 16.1123C14.9847 16.1123 15.5805 15.474 15.5805 14.684ZM18.9138 28.9666C19.3558 28.9666 19.7798 28.7785 20.0923 28.4436C20.4049 28.1088 20.5805 27.6547 20.5805 27.1812C20.5805 26.7077 20.4049 26.2536 20.0923 25.9188C19.7798 25.584 19.3558 25.3959 18.9138 25.3959C18.4718 25.3959 18.0479 25.584 17.7353 25.9188C17.4227 26.2536 17.2472 26.7077 17.2472 27.1812C17.2472 27.6547 17.4227 28.1088 17.7353 28.4436C18.0479 28.7785 18.4718 28.9666 18.9138 28.9666Z" fill="white"/>
</svg>
