<svg width="29" height="30" viewBox="0 0 29 30" fill="none" xmlns="http://www.w3.org/2000/svg">
<path d="M14.078 0C14.3478 0 14.6176 0.0586582 14.864 0.170109L25.9094 4.8569C27.1998 5.40242 28.1618 6.6753 28.156 8.21215C28.1266 14.031 25.7334 24.6775 15.6266 29.5168C14.647 29.9861 13.509 29.9861 12.5294 29.5168C2.42261 24.6775 0.0293558 14.031 2.66806e-05 8.21215C-0.00583914 6.6753 0.956155 5.40242 2.24664 4.8569L13.2978 0.170109C13.5383 0.0586582 13.8082 0 14.078 0Z" fill="#F7557F"/>
<path d="M21.1574 9.05289C21.5414 9.44388 21.5414 10.0789 21.1574 10.4698L13.2925 18.4774C12.9085 18.8684 12.2848 18.8684 11.9008 18.4774L7.96832 14.4736C7.58429 14.0826 7.58429 13.4477 7.96832 13.0567C8.35235 12.6657 8.97601 12.6657 9.36004 13.0567L12.5982 16.3504L19.7688 9.05289C20.1528 8.6619 20.7764 8.6619 21.1605 9.05289H21.1574Z" fill="black"/>
</svg>
