<svg width="151" height="216" viewBox="0 0 151 216" fill="none" xmlns="http://www.w3.org/2000/svg">
<path d="M47.1783 139.64C36.686 139.64 28.1494 131.103 28.1494 120.61C28.1494 118.38 28.5293 116.206 29.282 114.141C31.0758 109.214 30.5939 103.74 27.9735 99.1993C25.3531 94.6548 20.8579 91.5031 15.6909 90.5886C11.3611 89.8218 7.38996 87.5249 4.50573 84.12C2.4516 81.6929 0 77.5951 0 71.8476C0 63.4162 5.66294 55.8924 13.7704 53.5533C18.6033 52.1604 22.6166 48.7836 24.8184 44.2602C27.0203 39.7402 27.1997 34.4957 25.3144 29.8351C24.4069 27.5874 23.9461 25.2026 23.9461 22.7439C23.9461 12.2513 32.4828 3.71443 42.975 3.71443C48.5852 3.71443 53.8929 6.19424 57.5369 10.5172C60.9206 14.5341 65.8976 16.8345 71.1139 16.8345C71.4832 16.8345 71.856 16.824 72.2254 16.7994C77.8391 16.4476 82.9568 13.4543 86.0169 8.73384C89.5624 3.2642 95.5384 0 102.01 0C112.503 0 121.039 8.53687 121.039 19.0294C121.039 21.3123 120.638 23.5423 119.854 25.6528C118.046 30.4928 118.436 35.8781 120.923 40.4085C123.41 44.939 127.743 48.1575 132.798 49.2338C141.524 51.0911 147.863 58.9209 147.863 67.8517C147.863 77.7921 140.11 86.1284 130.212 86.8319C120.592 87.5178 113.28 95.7557 113.737 105.387C113.744 105.541 113.748 105.703 113.748 105.861C113.748 111.169 109.485 115.489 104.247 115.489C103.185 115.489 102.235 115.32 101.398 115.052C101.142 114.972 98.8904 114.222 97.1564 112.246C94.2088 108.89 94.8701 104.416 94.9721 103.768C95.1972 102.622 95.6967 100.979 96.9453 99.5089C98.398 97.7994 100.143 97.1451 100.807 96.8813C109.727 93.3322 114.212 83.3356 110.93 74.3133C110.181 72.2486 109.798 70.0713 109.798 67.8412C109.798 65.6111 110.199 63.3283 110.983 61.2178C112.791 56.3778 112.401 50.9926 109.914 46.4621C107.427 41.9316 103.094 38.7131 98.0392 37.6368C93.945 36.7645 90.1814 34.4957 87.4449 31.2491C84.0612 27.2321 79.0842 24.9317 73.868 24.9317C73.4986 24.9317 73.1258 24.9423 72.7565 24.9669C67.1428 25.3187 62.025 28.312 58.9649 33.0324C56.4465 36.9227 52.6337 39.7613 48.2335 41.0311C43.4006 42.424 39.3873 45.8008 37.1855 50.3243C34.9836 54.8442 34.8042 60.0887 36.6895 64.7493C37.597 66.997 38.0578 69.3818 38.0578 71.8405C38.0578 74.0706 37.6779 76.2444 36.9252 78.3091C35.1313 83.2371 35.6132 88.7067 38.2336 93.2513C38.3005 93.3674 38.3743 93.4905 38.4693 93.6312C41.5505 98.0667 45.7186 99.7586 50.5127 101.862C56.4289 104.458 59.387 105.756 60.4985 106.762C64.656 110.526 66.6855 116.632 66.1263 122.351C66.0243 123.378 65.3067 129.762 60.0237 134.613C56.5028 137.849 51.9373 139.629 47.1748 139.629L47.1783 139.64Z" fill="black"/>
<path d="M1.82901 213.017V163.523C1.82901 162.162 2.92994 161.061 4.29116 161.061H9.33153C12.0504 161.061 14.2558 163.266 14.2558 165.985V181.307C14.2558 181.68 14.7658 181.8 14.9241 181.459C15.4799 180.27 16.2009 179.207 17.0908 178.268C18.3887 176.896 19.9082 175.831 21.6493 175.067C23.3869 174.308 25.2159 173.928 27.1258 173.928C30.2633 173.928 32.9822 174.638 35.2896 176.059C37.5935 177.48 39.3838 179.492 40.6571 182.088C41.9304 184.688 42.567 187.8 42.567 191.427V213.014C42.567 214.375 41.4661 215.476 40.1049 215.476H32.6023C31.2411 215.476 30.1402 214.375 30.1402 213.014V193.414C30.1402 190.622 29.4297 188.427 28.0087 186.833C26.5877 185.24 24.6742 184.445 22.2719 184.445C20.6046 184.445 19.1696 184.863 17.9701 185.694C16.7672 186.527 15.8492 187.681 15.2125 189.151C14.5759 190.622 14.2558 192.289 14.2558 194.153V213.017C14.2558 214.378 13.1549 215.479 11.7937 215.479H4.29116C2.92994 215.479 1.82901 214.378 1.82901 213.017Z" fill="black"/>
<path d="M49.1831 213.017V176.907C49.1831 175.546 50.2841 174.445 51.6453 174.445H59.0739C60.4352 174.445 61.5361 175.546 61.5361 176.907V213.017C61.5361 214.378 60.4352 215.479 59.0739 215.479H51.6453C50.2841 215.479 49.1831 214.378 49.1831 213.017ZM57.0268 159.453H53.6924C52.813 159.453 52.0005 159.921 51.5609 160.684L49.8936 163.572C49.454 164.336 49.454 165.271 49.8936 166.035L51.5609 168.922C52.0005 169.686 52.813 170.153 53.6924 170.153H57.0268C57.9062 170.153 58.7187 169.686 59.1584 168.922L60.8256 166.035C61.2652 165.271 61.2652 164.336 60.8256 163.572L59.1584 160.684C58.7187 159.921 57.9062 159.453 57.0268 159.453Z" fill="black"/>
<path d="M78.9364 177.917L86.643 202.834C86.745 203.165 87.2163 203.165 87.3148 202.834L94.8243 177.948C95.4504 175.869 97.3674 174.445 99.5376 174.445H105.63C107.329 174.445 108.517 176.126 107.951 177.73L95.1374 213.84C94.7891 214.822 93.8606 215.479 92.8159 215.479H80.9941C79.953 215.479 79.0244 214.825 78.6762 213.844L65.7991 177.734C65.2258 176.13 66.4147 174.445 68.1171 174.445H74.2302C76.3899 174.445 78.2963 175.852 78.9364 177.913V177.917Z" fill="black"/>
<path d="M132.502 215.996C129.512 215.996 126.667 215.529 123.973 214.6C121.275 213.668 118.872 212.321 116.766 210.555C114.659 208.789 113.002 206.622 111.803 204.048C110.6 201.473 110.002 198.543 110.002 195.261C110.002 191.979 110.564 189.257 111.694 186.657C112.823 184.061 114.388 181.803 116.4 179.893C118.408 177.983 120.726 176.509 123.35 175.482C125.97 174.452 128.756 173.938 131.697 173.938C134.05 173.938 136.329 174.258 138.534 174.895C140.74 175.532 142.713 176.464 144.454 177.688C146.192 178.915 147.553 180.361 148.534 182.028C149.516 183.696 150.005 185.556 150.005 187.618C150.005 190.168 149.28 192.313 147.834 194.051C146.389 195.792 144.475 197.164 142.098 198.17C139.72 199.176 137.121 199.872 134.303 200.266C131.482 200.66 128.703 200.829 125.956 200.78C125.562 200.78 125.147 200.769 124.708 200.745C124.268 200.72 123.85 200.71 123.459 200.71H123.09C122.84 200.71 122.668 200.959 122.759 201.191C123.1 202.06 123.677 202.88 124.486 203.65C125.468 204.582 126.681 205.303 128.127 205.82C129.572 206.334 131.081 206.594 132.65 206.594C134.219 206.594 135.714 206.338 137.135 205.82C138.556 205.307 139.868 204.632 141.067 203.798C141.654 203.39 142.196 202.961 142.696 202.507C143.589 201.694 144.929 201.642 145.879 202.387L150.057 205.676C151.211 206.584 151.32 208.293 150.289 209.341C149.259 210.39 148.017 211.378 146.691 212.18C144.584 213.457 142.316 214.41 139.889 215.047C137.462 215.683 135 216.003 132.499 216.003L132.502 215.996ZM126.03 192.609C127.402 192.609 128.788 192.549 130.184 192.426C131.581 192.303 132.879 192.046 134.082 191.652C135.281 191.262 136.262 190.734 137.022 190.073C137.782 189.412 138.162 188.564 138.162 187.537C138.162 186.703 137.856 185.968 137.244 185.331C136.632 184.695 135.847 184.202 134.891 183.861C133.934 183.52 132.893 183.347 131.764 183.347C129.801 183.347 128.088 183.815 126.618 184.744C125.147 185.676 124.018 186.84 123.234 188.237C122.513 189.517 122.084 190.811 121.943 192.113C121.922 192.31 122.07 192.482 122.267 192.496C122.689 192.532 123.185 192.556 123.751 192.574C124.486 192.598 125.246 192.612 126.03 192.612V192.609Z" fill="black"/>
</svg>
