<svg width="46" height="46" viewBox="0 0 46 46" fill="none" xmlns="http://www.w3.org/2000/svg">
<circle cx="22.5646" cy="22.5646" r="22.5646" fill="#EBEBEB"/>
<mask id="mask0_145_437" style="mask-type:alpha" maskUnits="userSpaceOnUse" x="7" y="9" width="32" height="37">
<path d="M22.7153 27.067C25.0644 27.067 27.3172 26.1188 28.9783 24.431C30.6393 22.7432 31.5725 20.454 31.5725 18.067C31.5725 15.6801 30.6393 13.3909 28.9783 11.7031C27.3172 10.0152 25.0644 9.06702 22.7153 9.06702C20.3663 9.06702 18.1134 10.0152 16.4524 11.7031C14.7913 13.3909 13.8582 15.6801 13.8582 18.067C13.8582 20.454 14.7913 22.7432 16.4524 24.431C18.1134 26.1188 20.3663 27.067 22.7153 27.067ZM19.5531 30.442C12.7372 30.442 7.21533 36.053 7.21533 42.9787C7.21533 44.1319 8.13564 45.067 9.27047 45.067H36.1602C37.295 45.067 38.2153 44.1319 38.2153 42.9787C38.2153 36.053 32.6935 30.442 25.8776 30.442H19.5531Z" fill="#F7366D"/>
</mask>
<g mask="url(#mask0_145_437)">
<circle cx="22.5646" cy="22.5646" r="22.5646" fill="#767676"/>
</g>
</svg>
