<svg width="19" height="22" viewBox="0 0 19 22" fill="none" xmlns="http://www.w3.org/2000/svg">
<path fill-rule="evenodd" clip-rule="evenodd" d="M5.42857 5.5H2.03571C0.91183 5.5 0 6.42383 0 7.5625V19.9375C0 21.0762 0.91183 22 2.03571 22H11.5357C12.6596 22 13.5714 21.0762 13.5714 19.9375V17.875H11.5357V19.9375H2.03571V7.5625H5.42857V5.5Z" fill="white"/>
<path d="M8.82143 0H14.0846C14.6232 0 15.1406 0.219141 15.5223 0.605859L18.402 3.52344C18.7837 3.91016 19 4.43438 19 4.98008V14.4375C19 15.5762 18.0882 16.5 16.9643 16.5H8.82143C7.69754 16.5 6.78571 15.5762 6.78571 14.4375V2.0625C6.78571 0.923828 7.69754 0 8.82143 0Z" fill="white"/>
</svg>
