<svg width="100" height="100" viewBox="0 0 100 100" fill="none" xmlns="http://www.w3.org/2000/svg">
<circle cx="50" cy="50" r="50" fill="#F7366D"/>
<path d="M39.447 77.9413C35.221 77.9413 31.7827 74.5029 31.7827 70.2768C31.7827 69.3786 31.9357 68.503 32.2388 67.6714C32.9613 65.6866 32.7673 63.4821 31.7118 61.6531C30.6564 59.8227 28.8458 58.5533 26.7647 58.1849C25.0208 57.8761 23.4213 56.951 22.2596 55.5795C21.4323 54.602 20.4448 52.9515 20.4448 50.6365C20.4448 47.2406 22.7257 44.2102 25.9912 43.2681C27.9377 42.7071 29.5542 41.347 30.441 39.5251C31.3279 37.7046 31.4001 35.5922 30.6408 33.715C30.2753 32.8097 30.0897 31.8492 30.0897 30.8589C30.0897 26.6327 33.528 23.1943 37.754 23.1943C40.0137 23.1943 42.1515 24.1931 43.6192 25.9343C44.982 27.5522 46.9866 28.4788 49.0876 28.4788C49.2364 28.4788 49.3865 28.4745 49.5353 28.4646C51.7963 28.3229 53.8576 27.1173 55.0902 25.216C56.5182 23.013 58.9252 21.6982 61.5319 21.6982C65.7579 21.6982 69.1962 25.1367 69.1962 29.3628C69.1962 30.2823 69.0347 31.1805 68.7188 32.0305C67.9906 33.9799 68.1478 36.149 69.1495 37.9737C70.1511 39.7985 71.8964 41.0948 73.9322 41.5283C77.4471 42.2764 79.9999 45.43 79.9999 49.0271C79.9999 53.0308 76.8775 56.3885 72.891 56.6719C69.0163 56.9481 66.071 60.2661 66.2551 64.1451C66.258 64.2075 66.2594 64.2727 66.2594 64.3364C66.2594 66.4743 64.5424 68.214 62.4329 68.214C62.0051 68.214 61.6225 68.146 61.2854 68.0383C61.182 68.0058 60.2753 67.704 59.5768 66.9078C58.3896 65.5562 58.656 63.7541 58.6971 63.4934C58.7877 63.0316 58.9889 62.37 59.4918 61.7778C60.0769 61.0892 60.7796 60.8257 61.0474 60.7195C64.6401 59.29 66.4464 55.2636 65.1246 51.6297C64.8229 50.7981 64.6684 49.9211 64.6684 49.0229C64.6684 48.1247 64.8299 47.2052 65.1459 46.3552C65.8741 44.4057 65.7168 42.2367 64.7152 40.4119C63.7136 38.5872 61.9682 37.2909 59.9324 36.8573C58.2834 36.506 56.7675 35.5922 55.6653 34.2845C54.3025 32.6666 52.2978 31.7401 50.1969 31.7401C50.0481 31.7401 49.898 31.7443 49.7492 31.7543C47.4882 31.8959 45.4269 33.1016 44.1943 35.0028C43.18 36.5697 41.6443 37.7131 39.872 38.2245C37.9255 38.7855 36.309 40.1456 35.4221 41.9675C34.5353 43.788 34.463 45.9004 35.2224 47.7776C35.5879 48.6829 35.7735 49.6434 35.7735 50.6337C35.7735 51.5319 35.6205 52.4075 35.3173 53.2391C34.5948 55.2239 34.7889 57.427 35.8443 59.2574C35.8712 59.3042 35.901 59.3537 35.9392 59.4104C37.1803 61.1969 38.8591 61.8784 40.79 62.7256C43.1729 63.7711 44.3643 64.2939 44.812 64.6991C46.4866 66.215 47.304 68.6745 47.0787 70.9781C47.0376 71.3918 46.7486 73.9631 44.6208 75.9168C43.2026 77.2202 41.3638 77.9371 39.4456 77.9371L39.447 77.9413Z" fill="white"/>
</svg>
