<?xml version="1.0" encoding="UTF-8"?>
<svg id="Camada_2" data-name="Camada 2" xmlns="http://www.w3.org/2000/svg" viewBox="0 0 429.3 614.08">
  <defs>
    <style>
      .cls-1 {
        fill: #fff;
      }
    </style>
  </defs>
  <g id="Camada_1-2" data-name="Camada 1">
    <g>
      <path class="cls-1" d="M134.14,397c-29.83,0-54.1-24.27-54.1-54.1,0-6.34,1.08-12.52,3.22-18.39,5.1-14.01,3.73-29.57-3.72-42.48-7.45-12.92-20.23-21.88-34.92-24.48-12.31-2.18-23.6-8.71-31.8-18.39-5.84-6.9-12.81-18.55-12.81-34.89,0-23.97,16.1-45.36,39.15-52.01,13.74-3.96,25.15-13.56,31.41-26.42,6.26-12.85,6.77-27.76,1.41-41.01-2.58-6.39-3.89-13.17-3.89-20.16,0-29.83,24.27-54.1,54.1-54.1,15.95,0,31.04,7.05,41.4,19.34,9.62,11.42,23.77,17.96,38.6,17.96,1.05,0,2.11-.03,3.16-.1,15.96-1,30.51-9.51,39.21-22.93,10.08-15.55,27.07-24.83,45.47-24.83,29.83,0,54.1,24.27,54.1,54.1,0,6.49-1.14,12.83-3.37,18.83-5.14,13.76-4.03,29.07,3.04,41.95,7.07,12.88,19.39,22.03,33.76,25.09,24.81,5.28,42.83,27.54,42.83,52.93,0,28.26-22.04,51.96-50.18,53.96-27.35,1.95-48.14,25.37-46.84,52.75.02.44.03.9.03,1.35,0,15.09-12.12,27.37-27.01,27.37-3.02,0-5.72-.48-8.1-1.24-.73-.23-7.13-2.36-12.06-7.98-8.38-9.54-6.5-22.26-6.21-24.1.64-3.26,2.06-7.93,5.61-12.11,4.13-4.86,9.09-6.72,10.98-7.47,25.36-10.09,38.11-38.51,28.78-64.16-2.13-5.87-3.22-12.06-3.22-18.4s1.14-12.83,3.37-18.83c5.14-13.76,4.03-29.07-3.04-41.95-7.07-12.88-19.39-22.03-33.76-25.09-11.64-2.48-22.34-8.93-30.12-18.16-9.62-11.42-23.77-17.96-38.6-17.96-1.05,0-2.11.03-3.16.1-15.96,1-30.51,9.51-39.21,22.93-7.16,11.06-18,19.13-30.51,22.74-13.74,3.96-25.15,13.56-31.41,26.42-6.26,12.85-6.77,27.76-1.41,41.01,2.58,6.39,3.89,13.17,3.89,20.16,0,6.34-1.08,12.52-3.22,18.39-5.1,14.01-3.73,29.56,3.72,42.48.19.33.4.68.67,1.08,8.76,12.61,20.61,17.42,34.24,23.4,16.82,7.38,25.23,11.07,28.39,13.93,11.82,10.7,17.59,28.06,16,44.32-.29,2.92-2.33,21.07-17.35,34.86-10.01,9.2-22.99,14.26-36.53,14.26Z"/>
      <g>
        <path class="cls-1" d="M5.21,605.61v-140.71c0-3.87,3.13-7,7-7h14.33c7.73,0,14,6.27,14,14v43.56c0,1.06,1.45,1.4,1.9.43,1.58-3.38,3.63-6.4,6.16-9.07,3.69-3.9,8.01-6.93,12.96-9.1,4.94-2.16,10.14-3.24,15.57-3.24,8.92,0,16.65,2.02,23.21,6.06,6.55,4.04,11.64,9.76,15.26,17.14,3.62,7.39,5.43,16.24,5.43,26.55v61.37c0,3.87-3.13,7-7,7h-21.33c-3.87,0-7-3.13-7-7v-55.72c0-7.94-2.02-14.18-6.06-18.71-4.04-4.53-9.48-6.79-16.31-6.79-4.74,0-8.82,1.19-12.23,3.55-3.42,2.37-6.03,5.65-7.84,9.83-1.81,4.18-2.72,8.92-2.72,14.22v53.63c0,3.87-3.13,7-7,7H12.21c-3.87,0-7-3.13-7-7Z"/>
        <path class="cls-1" d="M139.84,605.61v-102.66c0-3.87,3.13-7,7-7h21.12c3.87,0,7,3.13,7,7v102.66c0,3.87-3.13,7-7,7h-21.12c-3.87,0-7-3.13-7-7ZM162.14,453.33h-9.48c-2.5,0-4.81,1.33-6.06,3.5l-4.74,8.21c-1.25,2.17-1.25,4.83,0,7l4.74,8.21c1.25,2.17,3.56,3.5,6.06,3.5h9.48c2.5,0,4.81-1.33,6.06-3.5l4.74-8.21c1.25-2.17,1.25-4.83,0-7l-4.74-8.21c-1.25-2.17-3.56-3.5-6.06-3.5Z"/>
        <path class="cls-1" d="M224.43,505.82l21.91,70.84c.29.94,1.63.94,1.91,0l21.35-70.75c1.78-5.91,7.23-9.96,13.4-9.96h17.32c4.83,0,8.21,4.78,6.6,9.34l-36.43,102.66c-.99,2.79-3.63,4.66-6.6,4.66h-33.61c-2.96,0-5.6-1.86-6.59-4.65l-36.61-102.66c-1.63-4.56,1.75-9.35,6.59-9.35h17.38c6.14,0,11.56,4,13.38,9.86Z"/>
        <path class="cls-1" d="M376.72,614.08c-8.5,0-16.59-1.33-24.25-3.97-7.67-2.65-14.5-6.48-20.49-11.5-5.99-5.02-10.7-11.18-14.11-18.5-3.42-7.32-5.12-15.65-5.12-24.98s1.6-17.07,4.81-24.46c3.21-7.38,7.66-13.8,13.38-19.23,5.71-5.43,12.3-9.62,19.76-12.54,7.45-2.93,15.37-4.39,23.73-4.39,6.69,0,13.17.91,19.44,2.72,6.27,1.81,11.88,4.46,16.83,7.94,4.94,3.49,8.81,7.6,11.6,12.34,2.79,4.74,4.18,10.03,4.18,15.89,0,7.25-2.06,13.35-6.17,18.29-4.11,4.95-9.55,8.85-16.31,11.71-6.76,2.86-14.15,4.84-22.16,5.96-8.02,1.12-15.92,1.6-23.73,1.46-1.12,0-2.3-.03-3.55-.1-1.25-.07-2.44-.1-3.55-.1h-1.05c-.71,0-1.2.71-.94,1.37.97,2.47,2.61,4.8,4.91,6.99,2.79,2.65,6.24,4.7,10.35,6.17,4.11,1.46,8.4,2.2,12.86,2.2s8.71-.73,12.75-2.2c4.04-1.46,7.77-3.38,11.18-5.75,1.67-1.16,3.21-2.38,4.63-3.67,2.54-2.31,6.35-2.46,9.05-.34l11.88,9.35c3.28,2.58,3.59,7.44.66,10.42s-6.46,5.79-10.23,8.07c-5.99,3.63-12.44,6.34-19.34,8.15-6.9,1.81-13.9,2.72-21.01,2.72ZM358.32,547.59c3.9,0,7.84-.17,11.81-.52,3.97-.35,7.66-1.08,11.08-2.2,3.41-1.11,6.2-2.61,8.36-4.49,2.16-1.88,3.24-4.29,3.24-7.21,0-2.37-.87-4.46-2.61-6.27-1.74-1.81-3.97-3.21-6.69-4.18-2.72-.97-5.68-1.46-8.89-1.46-5.58,0-10.45,1.33-14.63,3.97-4.18,2.65-7.39,5.96-9.62,9.93-2.05,3.64-3.27,7.32-3.67,11.02-.06.56.36,1.05.92,1.09,1.2.1,2.61.17,4.22.22,2.09.07,4.25.11,6.48.11Z"/>
      </g>
    </g>
  </g>
</svg>