<svg width="24" height="13" viewBox="0 0 24 13" fill="none" xmlns="http://www.w3.org/2000/svg">
<path d="M0.22741 4.40836C0.148084 4.32435 0.0872331 4.22581 0.0485077 4.11865C0.00978235 4.01148 -0.00601933 3.8979 0.00205071 3.78472C0.0101208 3.67155 0.0418962 3.5611 0.0954707 3.46002C0.149045 3.35893 0.223315 3.26929 0.313823 3.19646C0.404332 3.12364 0.509214 3.06914 0.622178 3.03623C0.735142 3.00331 0.85386 2.99267 0.971209 3.00494C1.08856 3.0172 1.20212 3.05212 1.30508 3.1076C1.40804 3.16309 1.49828 3.23798 1.57038 3.3278C2.44635 4.34974 3.41867 5.29172 4.47495 6.14176C6.94813 8.09089 9.515 9.07577 12.0604 9.0739C14.6058 9.07202 17.159 8.09089 19.6146 6.11924C20.6502 5.27715 21.6023 4.34455 22.4587 3.33343C22.6072 3.16518 22.8186 3.05981 23.0473 3.04009C23.276 3.02036 23.5036 3.08785 23.6809 3.22799C23.8583 3.36813 23.9711 3.56968 23.9952 3.78912C24.0192 4.00856 23.9525 4.22828 23.8095 4.40086C23.1997 5.11455 22.548 5.79413 21.8575 6.43628L23.0111 7.45306C23.1048 7.52443 23.1822 7.61354 23.2385 7.71486C23.2949 7.81617 23.329 7.92754 23.3387 8.04205C23.3484 8.15655 23.3335 8.27176 23.295 8.38051C23.2565 8.48926 23.1951 8.58924 23.1147 8.67425C23.0343 8.75926 22.9365 8.82748 22.8275 8.87468C22.7186 8.92189 22.6006 8.94706 22.4811 8.94865C22.3616 8.95024 22.243 8.92821 22.1327 8.88392C22.0224 8.83963 21.9227 8.77404 21.8399 8.6912L20.5535 7.56562C19.7372 8.21008 18.8595 8.77914 17.932 9.26524L18.6601 10.766C18.7437 10.9662 18.744 11.1896 18.6609 11.39C18.5779 11.5903 18.4179 11.7524 18.214 11.8425C18.0101 11.9327 17.7779 11.944 17.5656 11.8742C17.3532 11.8044 17.1769 11.6589 17.0731 11.4676L16.3431 9.96686C15.2452 10.378 14.0902 10.6308 12.9154 10.7172V12.1993C12.9048 12.415 12.8081 12.6186 12.6454 12.7677C12.4828 12.9168 12.2666 13 12.0419 13C11.8171 13 11.6009 12.9168 11.4383 12.7677C11.2756 12.6186 11.179 12.415 11.1683 12.1993V10.7172C9.9964 10.6287 8.84424 10.3759 7.74845 9.96686L7.0145 11.4676C6.96914 11.5723 6.90222 11.6671 6.81776 11.7462C6.7333 11.8254 6.63305 11.8873 6.52304 11.9282C6.41303 11.9692 6.29554 11.9883 6.17763 11.9845C6.05973 11.9807 5.94385 11.9539 5.83697 11.9059C5.73009 11.8579 5.63442 11.7896 5.55572 11.7052C5.47703 11.6207 5.41692 11.5218 5.37904 11.4144C5.34115 11.3071 5.32626 11.1934 5.33526 11.0804C5.34427 10.9673 5.37698 10.8572 5.43143 10.7566L6.16148 9.25587C5.23459 8.77047 4.3558 8.2047 3.53604 7.56562L2.25748 8.6912C2.17466 8.77404 2.075 8.83963 1.9647 8.88392C1.85439 8.92821 1.7358 8.95024 1.61627 8.94865C1.49674 8.94706 1.37882 8.92189 1.26984 8.87468C1.16085 8.82748 1.06312 8.75926 0.982711 8.67425C0.902298 8.58924 0.840919 8.48926 0.802382 8.38051C0.763844 8.27176 0.74897 8.15655 0.758682 8.04205C0.768394 7.92754 0.802485 7.81617 0.85884 7.71486C0.915195 7.61354 0.992612 7.52443 1.08629 7.45306L2.2243 6.45129C1.51866 5.80749 0.851939 5.12539 0.22741 4.40836Z" fill="white"/>
</svg>
