<?xml version="1.0" encoding="UTF-8"?>
<svg id="Camada_1" xmlns="http://www.w3.org/2000/svg" xmlns:xlink="http://www.w3.org/1999/xlink" version="1.1" viewBox="0 0 79.9 79.9">
  <!-- Generator: Adobe Illustrator 29.1.0, SVG Export Plug-In . SVG Version: 2.1.0 Build 142)  -->
  <defs>
    <style>
      .st0 {
        mask: url(#mask);
      }

      .st1 {
        fill: #767676;
      }

      .st2 {
        fill: #ebebeb;
      }

      .st3 {
        fill: #f7366d;
      }
    </style>
    <mask id="mask" x="1.6" y=".9" width="76.6" height="76.6" maskUnits="userSpaceOnUse">
      <g id="mask0_145_437">
        <path class="st3" d="M40.1,46.8c4,0,7.8-1.6,10.6-4.5,2.8-2.9,4.4-6.8,4.4-10.8s-1.6-7.9-4.4-10.8c-2.8-2.9-6.6-4.5-10.6-4.5s-7.8,1.6-10.6,4.5c-2.8,2.9-4.4,6.8-4.4,10.8s1.6,7.9,4.4,10.8c2.8,2.9,6.6,4.5,10.6,4.5ZM34.8,52.6c-11.6,0-21,9.5-21,21.3s1.6,3.5,3.5,3.5h45.7c1.9,0,3.5-1.6,3.5-3.5,0-11.8-9.4-21.3-21-21.3h-10.7Z"/>
      </g>
    </mask>
  </defs>
  <circle class="st2" cx="39.9" cy="39.2" r="38.3"/>
  <g class="st0">
    <circle class="st1" cx="39.9" cy="39.2" r="38.3"/>
  </g>
</svg>