<svg width="24" height="10" viewBox="0 0 24 10" fill="none" xmlns="http://www.w3.org/2000/svg">
<path d="M0.22741 1.40836C0.148084 1.32435 0.0872331 1.22581 0.0485077 1.11865C0.00978235 1.01148 -0.00601933 0.897902 0.00205071 0.784724C0.0101208 0.671547 0.0418962 0.561102 0.0954707 0.460016C0.149045 0.35893 0.223315 0.269286 0.313823 0.196462C0.404332 0.123639 0.509214 0.0691368 0.622178 0.0362255C0.735142 0.00331429 0.85386 -0.00732772 0.971209 0.00493797C1.08856 0.0172037 1.20212 0.0521243 1.30508 0.107605C1.40804 0.163085 1.49828 0.237982 1.57038 0.327802C2.44635 1.34974 3.41867 2.29172 4.47495 3.14176C6.94813 5.09089 9.515 6.07577 12.0604 6.0739C14.6058 6.07202 17.159 5.09089 19.6146 3.11924C20.6502 2.27715 21.6023 1.34455 22.4587 0.33343C22.6072 0.165178 22.8186 0.0598144 23.0473 0.0400877C23.276 0.020361 23.5036 0.0878535 23.6809 0.227994C23.8583 0.368134 23.9711 0.56968 23.9952 0.789118C24.0192 1.00856 23.9525 1.22828 23.8095 1.40086C23.1997 2.11455 22.548 2.79413 21.8575 3.43628L23.0111 4.45306C23.1048 4.52443 23.1822 4.61354 23.2385 4.71486C23.2949 4.81617 23.329 4.92754 23.3387 5.04205C23.3484 5.15655 23.3335 5.27176 23.295 5.38051C23.2565 5.48926 23.1951 5.58924 23.1147 5.67425C23.0343 5.75926 22.9365 5.82748 22.8275 5.87468C22.7186 5.92189 22.6006 5.94706 22.4811 5.94865C22.3616 5.95024 22.243 5.92821 22.1327 5.88392C22.0224 5.83963 21.9227 5.77404 21.8399 5.6912L20.5535 4.56562C19.7372 5.21008 18.8595 5.77914 17.932 6.26524L18.6601 7.76602C18.7437 7.96619 18.744 8.18959 18.6609 8.38997C18.5779 8.59035 18.4179 8.75237 18.214 8.84251C18.0101 8.93266 17.7779 8.94401 17.5656 8.87423C17.3532 8.80445 17.1769 8.65887 17.0731 8.46763L16.3431 6.96686C15.2452 7.37797 14.0902 7.63083 12.9154 7.71725V9.19926C12.9048 9.41504 12.8081 9.61861 12.6454 9.76771C12.4828 9.91682 12.2666 10 12.0419 10C11.8171 10 11.6009 9.91682 11.4383 9.76771C11.2756 9.61861 11.179 9.41504 11.1683 9.19926V7.71725C9.9964 7.62873 8.84424 7.37592 7.74845 6.96686L7.0145 8.46763C6.96914 8.5723 6.90222 8.66706 6.81776 8.74622C6.7333 8.82538 6.63305 8.8873 6.52304 8.92825C6.41303 8.9692 6.29554 8.98833 6.17763 8.98449C6.05973 8.98066 5.94385 8.95394 5.83697 8.90594C5.73009 8.85793 5.63442 8.78965 5.55572 8.70518C5.47703 8.62072 5.41692 8.52182 5.37904 8.41445C5.34115 8.30707 5.32626 8.19344 5.33526 8.0804C5.34427 7.96735 5.37698 7.85722 5.43143 7.75664L6.16148 6.25587C5.23459 5.77047 4.3558 5.2047 3.53604 4.56562L2.25748 5.6912C2.17466 5.77404 2.075 5.83963 1.9647 5.88392C1.85439 5.92821 1.7358 5.95024 1.61627 5.94865C1.49674 5.94706 1.37882 5.92189 1.26984 5.87468C1.16085 5.82748 1.06312 5.75926 0.982711 5.67425C0.902298 5.58924 0.840919 5.48926 0.802382 5.38051C0.763844 5.27176 0.74897 5.15655 0.758682 5.04205C0.768394 4.92754 0.802485 4.81617 0.85884 4.71486C0.915195 4.61354 0.992612 4.52443 1.08629 4.45306L2.2243 3.45129C1.51866 2.80749 0.851939 2.12539 0.22741 1.40836Z" fill="#AEAEB2"/>
</svg>
