<svg width="19" height="19" viewBox="0 0 19 19" fill="none" xmlns="http://www.w3.org/2000/svg">
<path d="M12.4688 13.0625C16.0758 13.0625 19 10.1383 19 6.53125C19 2.92422 16.0758 0 12.4688 0C8.86172 0 5.9375 2.92422 5.9375 6.53125C5.9375 7.2252 6.04512 7.89687 6.24551 8.52402L0.259766 14.5098C0.0927734 14.6768 0 14.9031 0 15.1406V18.1094C0 18.6029 0.39707 19 0.890625 19H3.85938C4.35293 19 4.75 18.6029 4.75 18.1094V16.625H6.23438C6.72793 16.625 7.125 16.2279 7.125 15.7344V14.25H8.60938C8.84688 14.25 9.07324 14.1572 9.24023 13.9902L10.476 12.7545C11.1031 12.9549 11.7748 13.0625 12.4688 13.0625ZM13.9531 3.5625C14.3468 3.5625 14.7244 3.71889 15.0027 3.99726C15.2811 4.27564 15.4375 4.65319 15.4375 5.04688C15.4375 5.44056 15.2811 5.81811 15.0027 6.09649C14.7244 6.37486 14.3468 6.53125 13.9531 6.53125C13.5594 6.53125 13.1819 6.37486 12.9035 6.09649C12.6251 5.81811 12.4688 5.44056 12.4688 5.04688C12.4688 4.65319 12.6251 4.27564 12.9035 3.99726C13.1819 3.71889 13.5594 3.5625 13.9531 3.5625Z" fill="white"/>
</svg>
