<svg width="35" height="33" viewBox="0 0 35 33" fill="none" xmlns="http://www.w3.org/2000/svg">
<path d="M5.18164 5.18652C11.4236 -1.06245 21.5393 -1.06251 27.7812 5.18652L29.0762 6.4834L29.9297 7.33789V2.3584C29.9299 1.33051 30.7588 0.501953 31.7842 0.501953C32.8094 0.502202 33.6375 1.33066 33.6377 2.3584V11.7861C33.6377 12.814 32.8095 13.6433 31.7842 13.6436H22.3672C21.3417 13.6436 20.5127 12.8142 20.5127 11.7861C20.5128 10.7581 21.3417 9.92969 22.3672 9.92969H27.2734L26.4209 9.07617L25.1553 7.80957C20.3619 3.01081 12.5932 3.01078 7.7998 7.80957C3.0068 12.6081 3.00676 20.3851 7.7998 25.1836C12.5931 29.9821 20.3619 29.982 25.1553 25.1836C25.8796 24.4585 27.0569 24.4585 27.7812 25.1836C28.5056 25.909 28.5058 27.0881 27.7812 27.8135C21.5393 34.0625 11.4236 34.0624 5.18164 27.8135C-1.06067 21.5641 -1.06067 11.4359 5.18164 5.18652Z" fill="#F7557F" stroke="black"/>
<path d="M17.1584 10.4579C17.4405 10.2179 17.8527 10.1986 18.1545 10.4139C18.4563 10.6292 18.5661 11.0206 18.4192 11.3553L16.4446 15.8768L16.4299 15.9091H19.3284C19.6629 15.9091 19.9603 16.1128 20.0774 16.4159C20.1943 16.7187 20.1042 17.0629 19.8547 17.2782L13.2815 22.9208C12.9995 23.1604 12.5881 23.1799 12.2864 22.9647C11.9846 22.7494 11.8748 22.358 12.0217 22.0233L13.9963 17.5048L14.011 17.4716H11.1116C10.7798 17.4714 10.4806 17.2658 10.3635 16.9628C10.2467 16.6602 10.3361 16.3158 10.5852 16.1005L17.1584 10.4579Z" fill="#F7557F" stroke="black" stroke-width="0.046875"/>
</svg>
