<svg width="35" height="33" viewBox="0 0 35 33" fill="none" xmlns="http://www.w3.org/2000/svg">
<path d="M5.18164 5.18652C11.4236 -1.06245 21.5393 -1.06251 27.7812 5.18652L29.0762 6.4834L29.9297 7.33789V2.3584C29.9299 1.33051 30.7588 0.501953 31.7842 0.501953C32.8094 0.502202 33.6375 1.33066 33.6377 2.3584V11.7861C33.6377 12.814 32.8095 13.6433 31.7842 13.6436H22.3672C21.3417 13.6436 20.5127 12.8142 20.5127 11.7861C20.5128 10.7581 21.3417 9.92969 22.3672 9.92969H27.2734L26.4209 9.07617L25.1553 7.80957C20.3619 3.01081 12.5932 3.01078 7.7998 7.80957C3.0068 12.6081 3.00676 20.3851 7.7998 25.1836C12.5931 29.9821 20.3619 29.982 25.1553 25.1836C25.8796 24.4585 27.0569 24.4585 27.7812 25.1836C28.5056 25.909 28.5058 27.0881 27.7812 27.8135C21.5393 34.0625 11.4236 34.0624 5.18164 27.8135C-1.06067 21.5641 -1.06067 11.4359 5.18164 5.18652Z" fill="#F7366D" stroke="#EBEBEB"/>
<path d="M18.4402 11.3647C18.5917 11.0196 18.4787 10.6166 18.1681 10.395C17.8574 10.1733 17.4337 10.1935 17.1435 10.4403L10.5702 16.0823C10.3135 16.304 10.221 16.6591 10.3417 16.9715C10.4624 17.2838 10.7705 17.4954 11.112 17.4954H13.975L12.0005 22.014C11.849 22.3591 11.9619 22.7621 12.2726 22.9838C12.5833 23.2054 13.007 23.1853 13.2971 22.9384L19.8704 17.2964C20.1272 17.0747 20.2196 16.7196 20.099 16.4073C19.9783 16.0949 19.6727 15.8859 19.3286 15.8859H16.4657L18.4402 11.3647Z" fill="#F7366D"/>
</svg>
