<svg width="38" height="38" viewBox="0 0 38 38" fill="none" xmlns="http://www.w3.org/2000/svg">
<circle cx="18.8038" cy="18.8038" r="18.8038" fill="#FF8DA5"/>
<path d="M20.3516 11.5714H22.9766C23.7025 11.5714 24.2891 12.146 24.2891 12.8571V23.1429C24.2891 23.854 23.7025 24.4286 22.9766 24.4286H20.3516C19.6256 24.4286 19.0391 25.0031 19.0391 25.7143C19.0391 26.4254 19.6256 27 20.3516 27H22.9766C25.1504 27 26.9141 25.2723 26.9141 23.1429V12.8571C26.9141 10.7277 25.1504 9 22.9766 9H20.3516C19.6256 9 19.0391 9.57455 19.0391 10.2857C19.0391 10.9969 19.6256 11.5714 20.3516 11.5714ZM19.966 18.908C20.4787 18.4058 20.4787 17.5902 19.966 17.0879L14.716 11.9451C14.2033 11.4429 13.3707 11.4429 12.858 11.9451C12.3453 12.4473 12.3453 13.2629 12.858 13.7652L15.8686 16.7143H7.22656C6.50059 16.7143 5.91406 17.2888 5.91406 18C5.91406 18.7112 6.50059 19.2857 7.22656 19.2857H15.8686L12.858 22.2348C12.3453 22.7371 12.3453 23.5527 12.858 24.0549C13.3707 24.5571 14.2033 24.5571 14.716 24.0549L19.966 18.9121V18.908Z" fill="white"/>
</svg>
