<svg width="28" height="28" viewBox="0 0 28 28" fill="none" xmlns="http://www.w3.org/2000/svg">
<g clip-path="url(#clip0_53_240)">
<path d="M26.0866 21.55C26.0866 22.1516 25.8476 22.7286 25.4222 23.154C24.9968 23.5794 24.4198 23.8184 23.8182 23.8184H3.4026C2.80098 23.8184 2.22401 23.5794 1.7986 23.154C1.37319 22.7286 1.1342 22.1516 1.1342 21.55V9.07383C1.1342 8.47221 1.37319 7.89523 1.7986 7.46983C2.22401 7.04442 2.80098 6.80543 3.4026 6.80543H7.9394L10.2078 3.40283H17.013L19.2814 6.80543H23.8182C24.4198 6.80543 24.9968 7.04442 25.4222 7.46983C25.8476 7.89523 26.0866 8.47221 26.0866 9.07383V21.55Z" stroke="white" stroke-width="2.72208" stroke-linecap="round" stroke-linejoin="round"/>
<path d="M13.6104 19.2816C16.116 19.2816 18.1472 17.2504 18.1472 14.7448C18.1472 12.2392 16.116 10.208 13.6104 10.208C11.1048 10.208 9.07359 12.2392 9.07359 14.7448C9.07359 17.2504 11.1048 19.2816 13.6104 19.2816Z" stroke="white" stroke-width="2.72208" stroke-linecap="round" stroke-linejoin="round"/>
</g>
<defs>
<clipPath id="clip0_53_240">
<rect width="27.2208" height="27.2208" fill="white"/>
</clipPath>
</defs>
</svg>
