<svg width="35" height="19" viewBox="0 0 35 19" fill="none" xmlns="http://www.w3.org/2000/svg">
<path d="M23.3349 3.8003C22.2595 3.8003 21.3907 2.95117 21.3907 1.90015C21.3907 0.849129 22.2595 0 23.3349 0H33.0558C34.1312 0 35 0.849129 35 1.90015V11.4009C35 12.4519 34.1312 13.301 33.0558 13.301C31.9804 13.301 31.1116 12.4519 31.1116 11.4009V6.49019L20.8196 16.5432C20.0601 17.2854 18.8268 17.2854 18.0673 16.5432L11.6697 10.2905L3.32183 18.4433C2.56238 19.1856 1.32904 19.1856 0.569587 18.4433C-0.189862 17.7011 -0.189862 16.4957 0.569587 15.7534L10.2905 6.25268C11.05 5.51043 12.2833 5.51043 13.0428 6.25268L19.4465 12.5113L28.3594 3.8003H23.3349Z" fill="#F7557F"/>
</svg>
