<svg width="32" height="32" viewBox="0 0 32 32" fill="none" xmlns="http://www.w3.org/2000/svg">
<g clip-path="url(#clip0_115_843)">
<path d="M16.0001 0.0250244C14.6177 0.0250244 13.3118 0.563324 12.3326 1.54252L6.19506 7.68002H8.27506C9.29906 7.68002 10.2656 8.07667 10.9888 8.80627L15.3213 13.1388C15.6925 13.51 16.3076 13.5101 16.6788 13.1325L21.0113 8.80627C21.7345 8.07667 22.7011 7.68002 23.7251 7.68002H25.8051L19.6676 1.54252C18.6884 0.563324 17.3825 0.0250244 16.0001 0.0250244ZM4.91506 8.96002L1.54256 12.3325C-0.479843 14.3549 -0.479843 17.6451 1.54256 19.6675L4.91506 23.04H8.27506C8.95986 23.04 9.59991 22.7713 10.0863 22.2913L14.4188 17.9588C15.2892 17.0884 16.7109 17.0884 17.5813 17.9588L21.9138 22.2913C22.4002 22.7713 23.0403 23.04 23.7251 23.04H27.0851L30.4576 19.6675C32.48 17.6451 32.48 14.3549 30.4576 12.3325L27.0851 8.96002H23.7251C23.0403 8.96002 22.4002 9.22877 21.9138 9.70877L17.5813 14.0413C17.1461 14.4765 16.5761 14.695 16.0001 14.695C15.4241 14.695 14.854 14.4765 14.4188 14.0413L10.0863 9.70877C9.59991 9.22877 8.95986 8.96002 8.27506 8.96002H4.91506ZM16.0001 18.5838C15.7537 18.5846 15.5069 18.6787 15.3213 18.8675L10.9888 23.1938C10.2656 23.9234 9.29906 24.32 8.27506 24.32H6.19506L12.3326 30.4575C13.3118 31.4367 14.6177 31.975 16.0001 31.975C17.3825 31.975 18.6884 31.4367 19.6676 30.4575L25.8051 24.32H23.7251C22.7011 24.32 21.7345 23.9234 21.0113 23.1938L16.6788 18.8613C16.4932 18.6757 16.2465 18.583 16.0001 18.5838Z" fill="#F7366D"/>
</g>
<defs>
<clipPath id="clip0_115_843">
<rect width="32" height="32" fill="white"/>
</clipPath>
</defs>
</svg>
