<svg width="32" height="32" viewBox="0 0 32 32" fill="none" xmlns="http://www.w3.org/2000/svg">
<path d="M15.9743 0C14.5919 0 13.286 0.5383 12.3068 1.5175L6.1693 7.655H8.2493C9.2733 7.655 10.2399 8.05165 10.963 8.78125L15.2956 13.1137C15.6667 13.485 16.2819 13.4851 16.6531 13.1075L20.9855 8.78125C21.7088 8.05165 22.6753 7.655 23.6993 7.655H25.7793L19.6418 1.5175C18.6626 0.5383 17.3567 0 15.9743 0ZM4.8893 8.935L1.5168 12.3075C-0.5056 14.3299 -0.5056 17.6201 1.5168 19.6425L4.8893 23.015H8.2493C8.9341 23.015 9.57415 22.7463 10.0606 22.2662L14.3931 17.9338C15.2635 17.0633 16.6852 17.0633 17.5555 17.9338L21.8881 22.2662C22.3745 22.7463 23.0145 23.015 23.6993 23.015H27.0593L30.4318 19.6425C32.4542 17.6201 32.4542 14.3299 30.4318 12.3075L27.0593 8.935H23.6993C23.0145 8.935 22.3745 9.20375 21.8881 9.68375L17.5555 14.0162C17.1203 14.4514 16.5503 14.67 15.9743 14.67C15.3983 14.67 14.8282 14.4514 14.3931 14.0162L10.0606 9.68375C9.57415 9.20375 8.9341 8.935 8.2493 8.935H4.8893ZM15.9743 18.5588C15.7279 18.5595 15.4812 18.6537 15.2956 18.8425L10.963 23.1687C10.2399 23.8983 9.2733 24.295 8.2493 24.295H6.1693L12.3068 30.4325C13.286 31.4117 14.5919 31.95 15.9743 31.95C17.3567 31.95 18.6626 31.4117 19.6418 30.4325L25.7793 24.295H23.6993C22.6753 24.295 21.7088 23.8983 20.9855 23.1687L16.6531 18.8363C16.4675 18.6507 16.2207 18.5579 15.9743 18.5588Z" fill="#F7557F"/>
</svg>
